# xmcd
#
# Track frame offsets: 
#        150
#        22735
#        43233
#        61900
#        81368
#        97695
#        118440
#        138570
#        156380
#        176760
#        197623
#        223750
#        241220
#        262298
#        280263
#        302013
#        320813
#
# Disc length: 4568 seconds
#
# Revision: 6
# Processed by: cddbd v1.5.2PL0 Copyright (c) Steve Scherf et al.
# Submitted via: ExactAudioCopy v1.1
#
DISCID=0111d611
DTITLE=Jimmy Somerville, Bronski Beat and The Communards - The Singles C
DTITLE=ollection 1984-1990
DYEAR=1991
DGENRE=Pop
TTITLE0=Bronski Beat - Smalltown Boy
TTITLE1=Communards and Sarah Jane Morris - Don't Leave Me This Way
TTITLE2=Bronski Beat - Ain't Necessarily So
TTITLE3=Jimmy Somerville - To Love Somebody
TTITLE4=Jimmy Somerville featuring June Miles Kingston - Comment Te Di
TTITLE4=re Adieu
TTITLE5=Jimmy Somerville - Run From Love
TTITLE6=Communards - Never Can Say Goodbye
TTITLE7=Bronski Beat - Why?
TTITLE8=Communards - You Are My World
TTITLE9=Communards - For A Friend
TTITLE10=Bronski Beat and Marc Almond - I Feel Love - Johnny Remember 
TTITLE10=Me
TTITLE11=Communards - There's More To Love Than Boy Meets Girl
TTITLE12=Communards - So Cold The Night
TTITLE13=Jimmy Somerville - You Make Me Feel (Mighty Real)
TTITLE14=Communards - Tomorrow
TTITLE15=Communards - Disenchanted
TTITLE16=Jimmy Somerville - Read My Lips
EXTD=YEAR: 1995 ID3G: 13
EXTT0=
EXTT1=
EXTT2=
EXTT3=
EXTT4=
EXTT5=
EXTT6=
EXTT7=
EXTT8=
EXTT9=
EXTT10=
EXTT11=
EXTT12=
EXTT13=
EXTT14=
EXTT15=
EXTT16=
PLAYORDER=
